<?xml version="1.0" encoding="UTF-8"?>
<svg version="1.1" xmlns="http://www.w3.org/2000/svg" width="416" height="121">
<path d="M0 0 C137.28 0 274.56 0 416 0 C416 39.93 416 79.86 416 121 C278.72 121 141.44 121 0 121 C0 81.07 0 41.14 0 0 Z " fill="#020202" transform="translate(0,0)"/>
<path d="M0 0 C10.291875 -0.103125 20.58375 -0.20625 31.1875 -0.3125 C34.43102295 -0.35802002 37.6745459 -0.40354004 41.01635742 -0.45043945 C43.58771734 -0.46504273 46.1590888 -0.47778376 48.73046875 -0.48828125 C49.39500565 -0.50134811 50.05954254 -0.51441498 50.74421692 -0.52787781 C52.71223616 -0.56462355 54.68080788 -0.56669664 56.64916992 -0.56762695 C58.31129768 -0.58428154 58.31129768 -0.58428154 60.00700378 -0.60127258 C66.0177155 0.60623852 69.15370728 6.37799628 72.625 11.0625 C77.68734356 17.77137584 83.19899356 23.92560298 89 30 C89.76183594 30.80308594 90.52367188 31.60617188 91.30859375 32.43359375 C97.79043301 39.1002983 104.75222591 45.26937303 112.5546875 50.35546875 C113.14862305 50.74605469 113.74255859 51.13664062 114.35449219 51.5390625 C116.0394372 52.6319998 117.74199269 53.69764485 119.4453125 54.76171875 C122 57 122 57 122.8671875 60.26953125 C122.91101563 61.17058594 122.95484375 62.07164063 123 63 C122.33355469 63.47308594 121.66710937 63.94617187 120.98046875 64.43359375 C109.6431188 72.56794414 99.14311463 81.44096921 89 91 C88.2678125 91.68964844 87.535625 92.37929687 86.78125 93.08984375 C81.37199665 98.33810741 76.68754874 104.10801166 72 110 C70.5 111.875 69 113.75 67.5 115.625 C66.8503125 116.44226563 66.200625 117.25953125 65.53125 118.1015625 C64 120 64 120 63 121 C61.03630847 121.0940067 59.06920801 121.11743381 57.10327148 121.11352539 C55.18484436 121.11334412 55.18484436 121.11334412 53.22766113 121.11315918 C51.85880485 121.10812271 50.48994904 121.10295607 49.12109375 121.09765625 C47.88363403 121.09664917 46.64617432 121.09564209 45.37121582 121.09460449 C40.72663452 121.08935285 36.08206638 121.07539175 31.4375 121.0625 C21.063125 121.041875 10.68875 121.02125 0 121 C0 81.07 0 41.14 0 0 Z " fill="#F7F7F7" transform="translate(0,0)"/>
<path d="M0 0 C23.1 0 46.2 0 70 0 C70 30.36 70 60.72 70 92 C46.9 92 23.8 92 0 92 C0 61.64 0 31.28 0 0 Z " fill="#FBFBFB" transform="translate(346,16)"/>
<path d="M0 0 C13.62514301 6.68795129 25.97473823 21.11077208 35 33 C35.60714844 33.74121094 36.21429688 34.48242188 36.83984375 35.24609375 C37.38769531 35.92800781 37.93554688 36.60992187 38.5 37.3125 C39.19609375 38.17294922 39.19609375 38.17294922 39.90625 39.05078125 C41.43046569 41.76715135 41.85426684 43.88840006 42 47 C34.99270197 61.43725849 14.56531952 82.19355882 0 89 C-4.17368502 89.52946176 -6.31633507 89.3863419 -10 87.3046875 C-10.99 86.50289063 -11.98 85.70109375 -13 84.875 C-13.54688477 84.43341553 -14.09376953 83.99183105 -14.65722656 83.53686523 C-25.48723486 74.64253025 -35.52945592 65.19061103 -44 54 C-44.556875 53.34386719 -45.11375 52.68773437 -45.6875 52.01171875 C-48.1274462 49.0214586 -49.02590791 47.50261351 -48.82421875 43.58984375 C-45.20657605 27.83338098 -21.97266402 10.77021682 -9.60546875 1.265625 C-6.15333791 -0.41127214 -3.796859 -0.43368378 0 0 Z " fill="#FAFAFA" transform="translate(65,16)"/>
<path d="M0 0 C23.43 0 46.86 0 71 0 C71 5.94 71 11.88 71 18 C56.15 18 41.3 18 26 18 C26 24.27 26 30.54 26 37 C39.53 37 53.06 37 67 37 C67 42.94 67 48.88 67 55 C53.47 55 39.94 55 26 55 C26 61.27 26 67.54 26 74 C40.85 74 55.7 74 71 74 C71 79.94 71 85.88 71 92 C47.57 92 24.14 92 0 92 C0 61.64 0 31.28 0 0 Z " fill="#FAFAFA" transform="translate(177,16)"/>
<path d="M0 0 C23.1 0 46.2 0 70 0 C70 5.94 70 11.88 70 18 C55.15 18 40.3 18 25 18 C25 24.27 25 30.54 25 37 C38.53 37 52.06 37 66 37 C66 42.94 66 48.88 66 55 C52.8 55 39.6 55 26 55 C26 61.27 26 67.54 26 74 C40.52 74 55.04 74 70 74 C70 79.94 70 85.88 70 92 C46.9 92 23.8 92 0 92 C0 61.64 0 31.28 0 0 Z " fill="#FCFCFC" transform="translate(262,16)"/>
<path d="M0 0 C8.25 0 16.5 0 25 0 C25 30.36 25 60.72 25 92 C16.75 92 8.5 92 0 92 C0 61.64 0 31.28 0 0 Z " fill="#FEFEFE" transform="translate(139,16)"/>
<path d="M0 0 C2.64 1.98 5.28 3.96 8 6 C9.02222656 6.7528125 10.04445313 7.505625 11.09765625 8.28125 C29.69503993 22.19865966 45.94455298 38.77662525 59 58 C59 58.33 59 58.66 59 59 C39.53 59 20.06 59 0 59 C0 39.53 0 20.06 0 0 Z " fill="#010101" transform="translate(0,62)"/>
<path d="M0 0 C19.47 0 38.94 0 59 0 C55.20082377 5.69876435 51.65353783 10.86480812 47.1875 15.9375 C46.66833008 16.53377197 46.14916016 17.13004395 45.61425781 17.74438477 C44.56955526 18.94129244 43.52225489 20.13593841 42.47216797 21.328125 C41.14273868 22.8378981 39.82274252 24.3559648 38.50390625 25.875 C34.57430217 30.34262613 30.56192848 34.46996604 26.0078125 38.30078125 C23.90507243 40.08033753 21.89773291 41.94277825 19.875 43.8125 C3.98722986 58 3.98722986 58 0 58 C0 38.86 0 19.72 0 0 Z " fill="#000000" transform="translate(0,0)"/>
<path d="M0 0 C14.52 0 29.04 0 44 0 C44 18.48 44 36.96 44 56 C29.48 56 14.96 56 0 56 C0 49.73 0 43.46 0 37 C13.53 37 27.06 37 41 37 C41 30.73 41 24.46 41 18 C27.47 18 13.94 18 0 18 C0 12.06 0 6.12 0 0 Z " fill="#000000" transform="translate(372,34)"/>
<path d="M0 0 C13.62514301 6.68795129 25.97473823 21.11077208 35 33 C35.60714844 33.74121094 36.21429688 34.48242188 36.83984375 35.24609375 C37.38769531 35.92800781 37.93554688 36.60992187 38.5 37.3125 C39.19609375 38.17294922 39.19609375 38.17294922 39.90625 39.05078125 C41.43046569 41.76715135 41.85426684 43.88840006 42 47 C34.99270197 61.43725849 14.56531952 82.19355882 0 89 C-4.17368502 89.52946176 -6.31633507 89.3863419 -10 87.3046875 C-10.99 86.50289063 -11.98 85.70109375 -13 84.875 C-13.54688477 84.43341553 -14.09376953 83.99183105 -14.65722656 83.53686523 C-25.48723486 74.64253025 -35.52945592 65.19061103 -44 54 C-44.556875 53.34386719 -45.11375 52.68773437 -45.6875 52.01171875 C-48.1274462 49.0214586 -49.02590791 47.50261351 -48.82421875 43.58984375 C-45.20657605 27.83338098 -21.97266402 10.77021682 -9.60546875 1.265625 C-6.15333791 -0.41127214 -3.796859 -0.43368378 0 0 Z M-10.5625 5.75 C-11.3364209 6.35702759 -11.3364209 6.35702759 -12.12597656 6.97631836 C-18.02550761 11.67968465 -23.54168263 16.79790521 -29 22 C-29.73089844 22.67804687 -30.46179688 23.35609375 -31.21484375 24.0546875 C-35.13644279 27.79767906 -38.67835063 31.83017972 -42.0625 36.0625 C-42.83722656 37.02285156 -43.61195312 37.98320313 -44.41015625 38.97265625 C-46.48672357 42.92680778 -46.25965738 44.74747246 -45 49 C-43.49764345 51.26666221 -42.11962106 53.08061814 -40.3125 55.0625 C-39.82628174 55.61341309 -39.34006348 56.16432617 -38.83911133 56.73193359 C-37.24855088 58.51013458 -35.63083282 60.2586914 -34 62 C-33.45053711 62.58797363 -32.90107422 63.17594727 -32.33496094 63.78173828 C-26.0713999 70.40979723 -19.53576665 76.64399539 -12.4375 82.375 C-11.86604248 82.84566895 -11.29458496 83.31633789 -10.70581055 83.80126953 C-8.33670318 85.64894153 -6.40839618 86.91632249 -3.4453125 87.5234375 C6.29616268 85.4382016 15.61234287 73.69004715 22.375 67 C23.21877197 66.17016602 24.06254395 65.34033203 24.93188477 64.48535156 C34.31508177 55.69033341 34.31508177 55.69033341 39.29638672 44.39379883 C38.84589678 40.75536901 36.75723461 38.43586485 34.5 35.6875 C34.01587646 35.08719971 33.53175293 34.48689941 33.03295898 33.8684082 C17.62271471 15.03608172 17.62271471 15.03608172 -2.484375 2.04296875 C-6.16390081 1.98011971 -7.70197219 3.49271275 -10.5625 5.75 Z " fill="#181818" transform="translate(65,16)"/>
<path d="M0 0 C0.66 0.33 1.32 0.66 2 1 C0.62140072 4.19363953 -0.88108828 5.99361769 -3.5625 8.1875 C-10.35781608 13.97701117 -16.55179446 20.13630762 -22.125 27.125 C-22.89070313 28.07632813 -23.65640625 29.02765625 -24.4453125 30.0078125 C-26.48887074 33.94089193 -26.24784588 35.77796506 -25 40 C-23.47667169 42.28499247 -22.07611969 44.12374701 -20.25 46.125 C-19.51680542 46.95523682 -19.51680542 46.95523682 -18.76879883 47.80224609 C-17.20061338 49.55589987 -15.60653503 51.2814488 -14 53 C-13.4829248 53.55558594 -12.96584961 54.11117187 -12.43310547 54.68359375 C-6.49296158 60.99696957 -0.2434677 66.86245882 6.5 72.3125 C7.36298706 73.0243042 7.36298706 73.0243042 8.2434082 73.75048828 C10.65652036 75.63747042 12.58515646 76.91876756 15.61328125 77.51171875 C18.70146794 76.84960344 20.29747653 75.54511347 22.6875 73.5 C26.81944444 70 26.81944444 70 29 70 C29 70.99 29 71.98 29 73 C27.05859375 74.82421875 27.05859375 74.82421875 24.4375 76.6875 C23.16712891 77.62142578 23.16712891 77.62142578 21.87109375 78.57421875 C18.22906469 80.38284543 16.02621782 80.52941428 12 80 C9 78.3046875 9 78.3046875 6 75.875 C5.45311523 75.43341553 4.90623047 74.99183105 4.34277344 74.53686523 C-6.48723486 65.64253025 -16.52945592 56.19061103 -25 45 C-25.556875 44.34386719 -26.11375 43.68773437 -26.6875 43.01171875 C-29.1274462 40.0214586 -30.02590791 38.50261351 -29.82421875 34.58984375 C-26.77544214 21.31104895 -9.35066075 9.17537799 0 0 Z " fill="#141414" transform="translate(46,25)"/>
<path d="M0 0 C0.99 0.99 1.98 1.98 3 3 C-0.96 4.98 -0.96 4.98 -5 7 C-5 8.32 -5 9.64 -5 11 C0.46747961 14.43306859 5.12985508 14.45416381 11.375 14.375 C12.73625 14.39240234 12.73625 14.39240234 14.125 14.41015625 C20.09390235 14.38435408 24.5397229 13.41684396 30 11 C30 9.35 30 7.7 30 6 C27.36 5.34 24.72 4.68 22 4 C21.505 2.02 21.505 2.02 21 0 C30.01532683 1.15272309 30.01532683 1.15272309 33.6875 4.3125 C35 7 35 7 35 9.625 C33.7749789 12.53442512 32.63965612 13.30534986 30 15 C17.64744952 19.71219743 3.36896943 19.54027126 -9 15 C-13.78020088 12.53214523 -13.78020088 12.53214523 -15.1875 9.125 C-15 6 -15 6 -12.3125 3.25 C-11.2263307 2.47416479 -10.12297905 1.7215276 -9 1 C-8.319375 0.54625 -7.63875 0.0925 -6.9375 -0.375 C-4.25905851 -1.23901338 -2.6508397 -0.88361323 0 0 Z " fill="#141414" transform="translate(50,52)"/>
<path d="M0 0 C2.14642449 3.21963674 3.35881354 6.44429859 4.625 10.0625 C4.85445312 10.69994141 5.08390625 11.33738281 5.3203125 11.99414062 C7 16.738258 7 16.738258 7 19 C5.35 19 3.7 19 2 19 C2.16371094 19.84820312 2.32742187 20.69640625 2.49609375 21.5703125 C3.00948445 25.0645531 3.09850739 28.34627574 3.0625 31.875 C3.05347656 33.02742188 3.04445313 34.17984375 3.03515625 35.3671875 C3.02355469 36.23601562 3.01195313 37.10484375 3 38 C1.35 38 -0.3 38 -2 38 C-2 31.73 -2 25.46 -2 19 C-3.32 19 -4.64 19 -6 19 C-4.3186083 12.51292846 -2.46937673 6.2322365 0 0 Z " fill="#070707" transform="translate(61,28)"/>
<path d="M0 0 C2.31 0 4.62 0 7 0 C7 6.27 7 12.54 7 19 C4.69 19 2.38 19 0 19 C0 12.73 0 6.46 0 0 Z " fill="#0A0A0A" transform="translate(58,71)"/>
<path d="M0 0 C0 5.5336705 -5.29164887 9.22441238 -9 13 C-12.91563543 16.7594868 -16.94553468 20.39145726 -21 24 C-21 20.0369954 -19.72653651 19.24396239 -17.0625 16.375 C-16.24652344 15.49585937 -15.43054688 14.61671875 -14.58984375 13.7109375 C-4.10714286 2.73809524 -4.10714286 2.73809524 0 0 Z " fill="#262626" transform="translate(97,73)"/>
<path d="M0 0 C3.125 0.375 3.125 0.375 6 1 C6.125 3.875 6.125 3.875 6 7 C5.34 7.66 4.68 8.32 4 9 C-0.55555556 8.44444444 -0.55555556 8.44444444 -2 7 C-2.1875 4.5625 -2.1875 4.5625 -2 2 C-1.34 1.34 -0.68 0.68 0 0 Z " fill="#9A9A9A" transform="translate(80,108)"/>
<path d="M0 0 C0.66 0.33 1.32 0.66 2 1 C0.57904457 4.3326532 -1.1165874 6.23606522 -3.875 8.5625 C-4.55304687 9.14128906 -5.23109375 9.72007813 -5.9296875 10.31640625 C-7.91651825 11.93211201 -9.93937141 13.4799399 -12 15 C-12 12 -12 12 -9.375 9.08203125 C-8.25750594 7.98449244 -7.13214357 6.89492105 -6 5.8125 C-5.42765625 5.25369141 -4.8553125 4.69488281 -4.265625 4.11914062 C-2.85037212 2.73926907 -1.42602845 1.36873266 0 0 Z " fill="#121212" transform="translate(46,25)"/>
<path d="M0 0 C0.66 0.33 1.32 0.66 2 1 C2 1.66 2 2.32 2 3 C0.03062339 4.62356346 -1.93345148 6.13559566 -4 7.625 C-4.57234375 8.04523437 -5.1446875 8.46546875 -5.734375 8.8984375 C-7.15203933 9.93805801 -8.57549262 10.96977591 -10 12 C-10 9 -10 9 -7.8125 6.5625 C-5.28225355 4.25716434 -2.70944196 2.09014094 0 0 Z " fill="#121212" transform="translate(58,16)"/>
<path d="M0 0 C2.125 0.375 2.125 0.375 4 1 C3.625 3.4375 3.625 3.4375 3 6 C1 7 1 7 -2 7 C-2.125 4.625 -2.125 4.625 -2 2 C-1.34 1.34 -0.68 0.68 0 0 Z " fill="#CDCDCD" transform="translate(80,108)"/>
<path d="M0 0 C0.33 0.99 0.66 1.98 1 3 C-0.32 3.99 -1.64 4.98 -3 6 C-3 3 -3 3 -1.5 1.3125 C-0.7575 0.6628125 -0.7575 0.6628125 0 0 Z " fill="#000000" transform="translate(37,34)"/>
</svg>
