<?xml version="1.0" encoding="UTF-8"?>
<svg version="1.1" xmlns="http://www.w3.org/2000/svg" width="272" height="78">
<path d="M0 0 C89.76 0 179.52 0 272 0 C272 25.74 272 51.48 272 78 C182.24 78 92.48 78 0 78 C0 52.26 0 26.52 0 0 Z " fill="#FCFDFE" transform="translate(0,0)"/>
<path d="M0 0 C0.99 0 1.98 0 3 0 C4.7265625 1.8359375 4.7265625 1.8359375 6.625 4.375 C14.49601915 14.51732957 22.65691612 22.48647693 33 30 C32.71408156 33.11023469 32.0589715 33.95006367 29.62890625 36.0078125 C28.61699219 36.70648438 27.60507813 37.40515625 26.5625 38.125 C16.86811761 45.06839133 9.21013175 53.53418458 2 63 C-1.36125397 61.59464813 -2.91798319 60.08536765 -5 57.125 C-12.29544487 47.42377674 -21.3257801 39.27706807 -31 32 C-29.68062616 28.04187847 -27.1190314 26.6087669 -23.875 24.25 C-15.62903624 18.0632925 -9.29331777 11.3106699 -2.8203125 3.2578125 C-1 1 -1 1 0 0 Z " fill="#1361A3" transform="translate(43,4)"/>
<path d="M0 0 C12.21 0 24.42 0 37 0 C37 3.3 37 6.6 37 10 C29.41 10 21.82 10 14 10 C14 12.97 14 15.94 14 19 C20.93 19 27.86 19 35 19 C35 22.3 35 25.6 35 29 C28.07 29 21.14 29 14 29 C14 32.3 14 35.6 14 39 C21.59 39 29.18 39 37 39 C37 41.97 37 44.94 37 48 C24.79 48 12.58 48 0 48 C0 32.16 0 16.32 0 0 Z " fill="#1F6AA8" transform="translate(193,12)"/>
<path d="M0 0 C12.21 0 24.42 0 37 0 C37 3.3 37 6.6 37 10 C29.41 10 21.82 10 14 10 C14 12.97 14 15.94 14 19 C20.93 19 27.86 19 35 19 C35 22.3 35 25.6 35 29 C27.74 29 20.48 29 13 29 C13 32.3 13 35.6 13 39 C20.92 39 28.84 39 37 39 C37 41.97 37 44.94 37 48 C24.79 48 12.58 48 0 48 C0 32.16 0 16.32 0 0 Z " fill="#1262A4" transform="translate(149,12)"/>
<path d="M0 0 C11.88 0 23.76 0 36 0 C36 2.97 36 5.94 36 9 C28.41 9 20.82 9 13 9 C13 12.3 13 15.6 13 19 C20.26 19 27.52 19 35 19 C35 22.3 35 25.6 35 29 C27.74 29 20.48 29 13 29 C13 32.3 13 35.6 13 39 C20.92 39 28.84 39 37 39 C37 41.97 37 44.94 37 48 C24.79 48 12.58 48 0 48 C0 32.16 0 16.32 0 0 Z " fill="#1765A6" transform="translate(105,12)"/>
<path d="M0 0 C4.29 0 8.58 0 13 0 C13 15.84 13 31.68 13 48 C8.71 48 4.42 48 0 48 C0 32.16 0 16.32 0 0 Z " fill="#1061A3" transform="translate(85,12)"/>
<path d="M0 0 C0.99 0 1.98 0 3 0 C4.7265625 1.8359375 4.7265625 1.8359375 6.625 4.375 C14.49601915 14.51732957 22.65691612 22.48647693 33 30 C32.71408156 33.11023469 32.0589715 33.95006367 29.62890625 36.0078125 C28.61699219 36.70648438 27.60507813 37.40515625 26.5625 38.125 C16.86811761 45.06839133 9.21013175 53.53418458 2 63 C-1.36125397 61.59464813 -2.91798319 60.08536765 -5 57.125 C-12.29544487 47.42377674 -21.3257801 39.27706807 -31 32 C-29.68062616 28.04187847 -27.1190314 26.6087669 -23.875 24.25 C-15.62903624 18.0632925 -9.29331777 11.3106699 -2.8203125 3.2578125 C-1 1 -1 1 0 0 Z M-8.375 13.375 C-8.93719238 13.91576172 -9.49938477 14.45652344 -10.07861328 15.01367188 C-17.27915818 21.92396736 -17.27915818 21.92396736 -23 30 C-22.48087869 38.40327624 -12.16208899 45.83858259 -6.453125 50.93359375 C-2.93333364 53.9745691 -2.93333364 53.9745691 1.390625 55.37109375 C4.8919603 54.87314936 6.20818463 53.49217646 8.75 51.0625 C9.61109375 50.24523438 10.4721875 49.42796875 11.359375 48.5859375 C12.23078125 47.73257813 13.1021875 46.87921875 14 46 C14.85078125 45.18789063 15.7015625 44.37578125 16.578125 43.5390625 C21.69179023 38.90095726 21.69179023 38.90095726 25 33 C24.57745647 25.29479452 17.41185042 19.31204972 12.16796875 14.28515625 C7.20272763 9.75955839 7.20272763 9.75955839 1.06640625 7.42578125 C-3.13410022 8.21237291 -5.43708979 10.46262153 -8.375 13.375 Z " fill="#1661A3" transform="translate(43,4)"/>
<path d="M0 0 C12.21 0 24.42 0 37 0 C37 3.3 37 6.6 37 10 C29.41 10 21.82 10 14 10 C14 12.97 14 15.94 14 19 C20.93 19 27.86 19 35 19 C35 22.3 35 25.6 35 29 C27.74 29 20.48 29 13 29 C13 28.67 13 28.34 13 28 C19.93 28 26.86 28 34 28 C34 25.36 34 22.72 34 20 C27.07 20 20.14 20 13 20 C13 16.04 13 12.08 13 8 C20.26 8 27.52 8 35 8 C35 6.02 35 4.04 35 2 C24.11 2 13.22 2 2 2 C2 16.52 2 31.04 2 46 C12.89 46 23.78 46 35 46 C35 44.02 35 42.04 35 40 C35.33 40 35.66 40 36 40 C36 42.64 36 45.28 36 48 C24.12 48 12.24 48 0 48 C0 32.16 0 16.32 0 0 Z " fill="#3477B0" transform="translate(149,12)"/>
<path d="M0 0 C2.3882424 1.53191231 4.28921033 2.9442275 6.375 4.8125 C6.93719238 5.30443848 7.49938477 5.79637695 8.07861328 6.30322266 C13.0929299 10.82861824 18.06836076 15.84930591 21 22 C20.82034221 25.84235863 19.63093844 27.90149972 17.0625 30.6875 C16.43988281 31.36425781 15.81726562 32.04101562 15.17578125 32.73828125 C1.71231983 46.73351314 1.71231983 46.73351314 -2.359375 47.3671875 C-11.27790076 46.12703747 -19.57272753 34.60815153 -25 28 C-27 25 -27 25 -26.97265625 22.7109375 C-25.61967938 18.93998991 -23.17400703 16.45134395 -20.4375 13.625 C-19.89464355 13.05499268 -19.35178711 12.48498535 -18.79248047 11.89770508 C-17.20901467 10.25066606 -15.60878608 8.62227477 -14 7 C-13.22011719 6.20722656 -12.44023438 5.41445313 -11.63671875 4.59765625 C-7.69971137 0.85941041 -5.67744036 -0.83903059 0 0 Z M-23.515625 19.51953125 C-25.19241703 21.81577283 -25.19241703 21.81577283 -24.9375 24.078125 C-23.81248442 26.38440694 -22.47869152 28.03969735 -20.75 29.9375 C-20.11578125 30.63488281 -19.4815625 31.33226563 -18.828125 32.05078125 C-16.59932833 34.42721189 -14.36276042 36.7553776 -12 39 C-11.1646875 39.81017578 -11.1646875 39.81017578 -10.3125 40.63671875 C-9.714375 41.18972656 -9.11625 41.74273437 -8.5 42.3125 C-7.68015625 43.08013672 -7.68015625 43.08013672 -6.84375 43.86328125 C-4.32150206 45.41831123 -2.91982879 45.46451822 0 45 C3.72269921 42.44834855 6.81382639 39.18617361 10 36 C10.87398437 35.12601563 11.74796875 34.25203125 12.6484375 33.3515625 C17.08805775 29.04735515 17.08805775 29.04735515 19.5546875 23.5703125 C18.75798654 19.87855733 16.56709971 17.73990261 14 15.125 C13.50032715 14.60196289 13.0006543 14.07892578 12.48583984 13.54003906 C11.00732037 12.00896894 9.50909338 10.50088621 8 9 C7.22914062 8.22914062 6.45828125 7.45828125 5.6640625 6.6640625 C2.1438017 3.18648332 2.1438017 3.18648332 -2.3984375 1.58984375 C-10.94563405 2.93737474 -18.21356023 13.18447799 -23.515625 19.51953125 Z " fill="#D3DFEC" transform="translate(47,12)"/>
<path d="M0 0 C0.66 0 1.32 0 2 0 C2.99 3.3 3.98 6.6 5 10 C4.34 10 3.68 10 3 10 C3 12.97 3 15.94 3 19 C6.465 18.505 6.465 18.505 10 18 C10 17.01 10 16.02 10 15 C8.68 14.67 7.36 14.34 6 14 C6 13.34 6 12.68 6 12 C9.37462715 12.54723683 11.08235 13.0549 14 15 C13.6875 16.875 13.6875 16.875 13 19 C8.95301203 21.69799198 5.87298435 21.33137116 1.125 21.3125 C-0.07962891 21.33666992 -0.07962891 21.33666992 -1.30859375 21.36132812 C-6.05793194 21.36524027 -9.09157526 20.99856878 -13 18 C-12.62492618 15.28071483 -12.15781339 14.15781339 -10.1875 12.1875 C-8 11 -8 11 -5.75 11.3125 C-5.1725 11.539375 -4.595 11.76625 -4 12 C-4 12.66 -4 13.32 -4 14 C-5.32 14.33 -6.64 14.66 -8 15 C-7.67 15.99 -7.34 16.98 -7 18 C-5.02 18.33 -3.04 18.66 -1 19 C-1.020625 17.72125 -1.04125 16.4425 -1.0625 15.125 C-1.125 11.25 -1.125 11.25 0 9 C-0.66 9 -1.32 9 -2 9 C-1.34 6.03 -0.68 3.06 0 0 Z " fill="#A1BBD7" transform="translate(43,19)"/>
<path d="M0 0 C2.54891087 1.49597229 4.68003605 3.34348822 6.875 5.3125 C7.46796875 5.81201172 8.0609375 6.31152344 8.671875 6.82617188 C10.18411278 8.14153999 11.60053344 9.56523532 13 11 C13 11.99 13 12.98 13 14 C12.56429687 13.62488281 12.12859375 13.24976563 11.6796875 12.86328125 C10.43478055 11.79352354 9.18442391 10.73008643 7.9296875 9.671875 C6.73464611 8.63649501 5.56618954 7.5683695 4.4453125 6.453125 C1.75963719 3.86906984 0.3222062 3.01757488 -3.4375 2.8125 C-7.93683932 4.31227977 -10.67601579 6.69622238 -14 10 C-14 7 -14 7 -12.4609375 5.17578125 C-11.77257813 4.56089844 -11.08421875 3.94601563 -10.375 3.3125 C-9.70210937 2.68988281 -9.02921875 2.06726563 -8.3359375 1.42578125 C-5.19559774 -0.49098131 -3.63299046 -0.62048599 0 0 Z " fill="#C5D4E5" transform="translate(47,12)"/>
<path d="M0 0 C0.86625 0.3403125 0.86625 0.3403125 1.75 0.6875 C1.75 1.3475 1.75 2.0075 1.75 2.6875 C0.43 3.0175 -0.89 3.3475 -2.25 3.6875 C-1.92 4.6775 -1.59 5.6675 -1.25 6.6875 C3.04 7.3475 7.33 8.0075 11.75 8.6875 C11.75 9.0175 11.75 9.3475 11.75 9.6875 C9.52144426 9.7689222 7.29202345 9.82688079 5.0625 9.875 C3.82113281 9.90980469 2.57976563 9.94460937 1.30078125 9.98046875 C-2.43564321 9.6721829 -4.25629483 8.86838273 -7.25 6.6875 C-6.87492618 3.96821483 -6.40781339 2.84531339 -4.4375 0.875 C-2.25 -0.3125 -2.25 -0.3125 0 0 Z " fill="#E0E8F1" transform="translate(37.25,30.3125)"/>
<path d="M0 0 C0.66 0 1.32 0 2 0 C2.66 2.97 3.32 5.94 4 9 C3.34 9 2.68 9 2 9 C2 12.3 2 15.6 2 19 C1.34 19 0.68 19 0 19 C0 15.7 0 12.4 0 9 C-0.66 9 -1.32 9 -2 9 C-1.34 6.03 -0.68 3.06 0 0 Z " fill="#F0F4F9" transform="translate(43,19)"/>
<path d="M0 0 C3.45195767 1.4258086 5.1014256 3.09746334 7.25 6.125 C7.77078125 6.84945313 8.2915625 7.57390625 8.828125 8.3203125 C9.40820312 9.15175781 9.40820312 9.15175781 10 10 C9.34 10.66 8.68 11.32 8 12 C7.54109375 11.59007812 7.0821875 11.18015625 6.609375 10.7578125 C5.68898438 9.94957031 5.68898438 9.94957031 4.75 9.125 C4.14671875 8.59132813 3.5434375 8.05765625 2.921875 7.5078125 C1.02581254 6.0202513 -0.81290005 4.99677564 -3 4 C-1.68 3.34 -0.36 2.68 1 2 C0.67 1.34 0.34 0.68 0 0 Z " fill="#2268A7" transform="translate(46,7)"/>
<path d="M0 0 C1.32 0 2.64 0 4 0 C4 3.3 4 6.6 4 10 C2.68 10 1.36 10 0 10 C0 6.7 0 3.4 0 0 Z " fill="#CFDEEB" transform="translate(42,41)"/>
<path d="M0 0 C3.65415742 1.56363945 6.2119688 3.82175042 9.125 6.5 C9.99382812 7.2940625 10.86265625 8.088125 11.7578125 8.90625 C13.19408422 10.24743753 14.61045683 11.61045683 16 13 C14.35 13.33 12.7 13.66 11 14 C9.53998252 12.23055495 8.08204407 10.45939429 6.625 8.6875 C5.81289063 7.70136719 5.00078125 6.71523438 4.1640625 5.69921875 C2 3 2 3 0 0 Z " fill="#105BA0" transform="translate(55,18)"/>
<path d="M0 0 C0.99 0.33 1.98 0.66 3 1 C-0.63 4.63 -4.26 8.26 -8 12 C-8.99 11.67 -9.98 11.34 -11 11 C-7.37 7.37 -3.74 3.74 0 0 Z " fill="#06569D" transform="translate(34,15)"/>
<path d="M0 0 C1.15224028 0.92961422 2.29659176 1.8690125 3.4375 2.8125 C4.07558594 3.33457031 4.71367187 3.85664062 5.37109375 4.39453125 C7 6 7 6 8 9 C9.31647119 9.69937532 10.65022151 10.36729133 12 11 C12.33 11.66 12.66 12.32 13 13 C9.23349341 12.432908 7.45745882 10.86223321 4.8125 8.1875 C3.77029297 7.15689453 3.77029297 7.15689453 2.70703125 6.10546875 C0.98948387 3.98702931 0.40089227 2.66264268 0 0 Z " fill="#C0D1E4" transform="translate(24,40)"/>
<path d="M0 0 C0.66 0 1.32 0 2 0 C2.33 2.64 2.66 5.28 3 8 C2.01 8 1.02 8 0 8 C0 5.36 0 2.72 0 0 Z " fill="#FEFEFE" transform="translate(43,42)"/>
<path d="M0 0 C-1.39332574 3.36720387 -2.9789286 4.9859524 -6 7 C-6 4 -6 4 -4.125 1.8125 C-2 0 -2 0 0 0 Z " fill="#2B65A6" transform="translate(62,46)"/>
<path d="M0 0 C0.99 0.33 1.98 0.66 3 1 C3 2.32 3 3.64 3 5 C1.68 4.67 0.36 4.34 -1 4 C-0.67 2.68 -0.34 1.36 0 0 Z " fill="#87A9CC" transform="translate(54,60)"/>
</svg>
