<?xml version="1.0" encoding="UTF-8"?>
<svg version="1.1" xmlns="http://www.w3.org/2000/svg" width="300" height="168">
<path d="M0 0 C99 0 198 0 300 0 C300 55.44 300 110.88 300 168 C201 168 102 168 0 168 C0 112.56 0 57.12 0 0 Z " fill="#FDFDFD" transform="translate(0,0)"/>
<path d="M0 0 C2.64453125 0.2734375 2.64453125 0.2734375 4.3828125 1.671875 C5.16205078 2.65027344 5.16205078 2.65027344 5.95703125 3.6484375 C6.55773438 4.38449219 7.1584375 5.12054688 7.77734375 5.87890625 C8.70160156 7.06419922 8.70160156 7.06419922 9.64453125 8.2734375 C19.42133305 20.7378017 29.88216499 33.39199559 42.8984375 42.61328125 C43.72311523 43.20254395 43.72311523 43.20254395 44.56445312 43.80371094 C46.12071685 44.90012741 47.6966043 45.96853405 49.2734375 47.03515625 C51.64453125 49.2734375 51.64453125 49.2734375 52.59765625 52.39453125 C52.64453125 55.2734375 52.64453125 55.2734375 50.83203125 57.6484375 C49.79226507 58.55033413 48.7253467 59.42116453 47.64453125 60.2734375 C46.91492188 60.85867187 46.1853125 61.44390625 45.43359375 62.046875 C43.7350202 63.40251888 42.03301134 64.75386632 40.328125 66.1015625 C35.9399397 69.65299048 31.77609673 73.42869144 27.64453125 77.2734375 C26.64486328 78.19189453 26.64486328 78.19189453 25.625 79.12890625 C18.51480619 85.92051703 12.70491325 93.90793271 6.78515625 101.73046875 C4.69694995 104.37301848 3.31545949 106.08174372 0.01953125 107.0234375 C-4.67564627 105.54074986 -7.18992006 100.11740895 -9.91796875 96.2109375 C-21.05345261 80.88423831 -35.09333056 68.35164471 -50.35546875 57.2734375 C-51.35546875 56.2734375 -51.35546875 56.2734375 -51.91796875 53.6484375 C-51.03747012 48.36544574 -47.46413528 46.4288934 -43.35546875 43.2734375 C-27.82660496 31.28443118 -14.39985158 17.48262566 -3.35546875 1.2734375 C-2.35546875 0.2734375 -2.35546875 0.2734375 0 0 Z " fill="#0F2447" transform="translate(56.35546875,30.7265625)"/>
<path d="M0 0 C11.55 0 23.1 0 35 0 C35 2.97 35 5.94 35 9 C27.74 9 20.48 9 13 9 C13 11.97 13 14.94 13 18 C19.6 18 26.2 18 33 18 C33 20.97 33 23.94 33 27 C26.4 27 19.8 27 13 27 C13 30.96 13 34.92 13 39 C20.26 39 27.52 39 35 39 C35 41.97 35 44.94 35 48 C23.45 48 11.9 48 0 48 C0 32.16 0 16.32 0 0 Z " fill="#070707" transform="translate(203,50)"/>
<path d="M0 0 C11.55 0 23.1 0 35 0 C35 2.97 35 5.94 35 9 C27.41 9 19.82 9 12 9 C12 11.97 12 14.94 12 18 C18.93 18 25.86 18 33 18 C33 20.97 33 23.94 33 27 C26.07 27 19.14 27 12 27 C12 30.96 12 34.92 12 39 C19.59 39 27.18 39 35 39 C35 41.97 35 44.94 35 48 C23.45 48 11.9 48 0 48 C0 32.16 0 16.32 0 0 Z " fill="#020202" transform="translate(158,50)"/>
<path d="M0 0 C11.22 0 22.44 0 34 0 C34 2.97 34 5.94 34 9 C26.74 9 19.48 9 12 9 C12 11.97 12 14.94 12 18 C18.93 18 25.86 18 33 18 C33 20.97 33 23.94 33 27 C26.07 27 19.14 27 12 27 C12 30.96 12 34.92 12 39 C19.26 39 26.52 39 34 39 C34 41.97 34 44.94 34 48 C22.78 48 11.56 48 0 48 C0 32.16 0 16.32 0 0 Z " fill="#010101" transform="translate(249,50)"/>
<path d="M0 0 C9.24 0 18.48 0 28 0 C28 2.97 28 5.94 28 9 C25.36 9 22.72 9 20 9 C20 19.23 20 29.46 20 40 C22.64 40 25.28 40 28 40 C28 42.64 28 45.28 28 48 C18.76 48 9.52 48 0 48 C0 45.36 0 42.72 0 40 C2.64 40 5.28 40 8 40 C8 29.44 8 18.88 8 8 C5.36 8 2.72 8 0 8 C0 5.36 0 2.72 0 0 Z " fill="#020202" transform="translate(120,50)"/>
<path d="M0 0 C2.34057947 0.38761189 3.68029927 0.6793936 5.37890625 2.3828125 C8.14320577 6.45171542 10.22010751 10.40975095 12 15 C12.66 13.68 13.32 12.36 14 11 C17 12 17 12 18.1875 14.3125 C19.54827458 20.48832311 20.7271196 28.03375829 17.25 33.6875 C14.92906975 36.07290053 14.11504193 36.40447728 11 37 C10.38511719 36.16855469 10.38511719 36.16855469 9.7578125 35.3203125 C9.21898438 34.59585938 8.68015625 33.87140625 8.125 33.125 C7.59132813 32.40570313 7.05765625 31.68640625 6.5078125 30.9453125 C5.00126838 28.91747368 5.00126838 28.91747368 3 27 C2.375 24.875 2.375 24.875 2 23 C1.34 23.66 0.68 24.32 0 25 C0.23864442 30.03505052 0.23864442 30.03505052 3 34 C3 34.99 3 35.98 3 37 C-2.15645711 36.75445442 -4.38187221 35.14177128 -7.80078125 31.5703125 C-9.90473749 28.81529488 -10.50685855 25.66397137 -10.4921875 22.23828125 C-9.11002675 15.95274068 -4.52511654 10.28767481 -1 5 C-0.61500109 3.34450469 -0.27206865 1.6777567 0 0 Z " fill="#F8F9F9" transform="translate(51,45)"/>
<path d="M0 0 C9.9 0 19.8 0 30 0 C30 0.99 30 1.98 30 3 C25.38 3 20.76 3 16 3 C16 7.29 16 11.58 16 16 C20.95 14.515 20.95 14.515 26 13 C26 12.34 26 11.68 26 11 C25.01 10.67 24.02 10.34 23 10 C23 10.99 23 11.98 23 13 C22.34 13 21.68 13 21 13 C20.67 10.69 20.34 8.38 20 6 C23.465 5.505 23.465 5.505 27 5 C27.77321882 7.98241547 28.41196203 10.97580475 29 14 C24.86233307 18.13766693 22.74187271 17.25090303 16 18 C16 24.27 16 30.54 16 37 C15.34 37 14.68 37 14 37 C14 30.73 14 24.46 14 18 C11.69 18 9.38 18 7 18 C3.625 16.8125 3.625 16.8125 1 15 C0.125 12.3125 0.125 12.3125 0 10 C2.93828597 7.49701566 5.17902761 6.53069061 9 6 C9 6.66 9 7.32 9 8 C7.02 8.99 5.04 9.98 3 11 C3 11.66 3 12.32 3 13 C8.445 14.485 8.445 14.485 14 16 C14 11.71 14 7.42 14 3 C9.38 3 4.76 3 0 3 C0 2.01 0 1.02 0 0 Z " fill="#EEEFF0" transform="translate(42,89)"/>
<path d="M0 0 C0.226875 0.86625 0.45375 1.7325 0.6875 2.625 C2.24445553 6.62859994 4.16492614 8.80145513 7 12 C7.33 12.66 7.66 13.32 8 14 C9.97888961 14.72693904 11.97954558 15.39816251 14 16 C10.95318939 18.03120707 10.39881676 18.24659875 6.98828125 18.1953125 C6.23095703 18.18886719 5.47363281 18.18242188 4.69335938 18.17578125 C3.90767578 18.15902344 3.12199219 18.14226562 2.3125 18.125 C1.51521484 18.11597656 0.71792969 18.10695313 -0.10351562 18.09765625 C-2.069139 18.07411585 -4.03460775 18.03824547 -6 18 C-2.25 16 -2.25 16 0 16 C-1.12451727 13.0280615 -2.22293791 10.66559313 -4 8 C-4.3125 5.5 -4.3125 5.5 -4 3 C-1.62068966 0 -1.62068966 0 0 0 Z " fill="#0C1F44" transform="translate(54,67)"/>
<path d="M0 0 C0.66 0 1.32 0 2 0 C2 3.96 2 7.92 2 12 C0.72125 12.061875 -0.5575 12.12375 -1.875 12.1875 C-2.59429687 12.22230469 -3.31359375 12.25710937 -4.0546875 12.29296875 C-4.69664062 12.19628906 -5.33859375 12.09960938 -6 12 C-8 9 -8 9 -7.6875 6.375 C-7 4 -7 4 -6 3 C-4.00041636 2.95919217 -1.99954746 2.95745644 0 3 C0 2.01 0 1.02 0 0 Z " fill="#333333" transform="translate(161,104)"/>
<path d="M0 0 C1.98 0 3.96 0 6 0 C7.41404314 3.80024093 8.34892324 6.92922882 8 11 C7 12 7 12 3.4375 12.0625 C2.303125 12.041875 1.16875 12.02125 0 12 C0 8.04 0 4.08 0 0 Z " fill="#383838" transform="translate(210,104)"/>
<path d="M0 0 C0.64195313 0.16242188 1.28390625 0.32484375 1.9453125 0.4921875 C5.94417253 1.15695963 9.82902101 1.14493093 13.875 1.125 C14.65230469 1.12886719 15.42960937 1.13273437 16.23046875 1.13671875 C20.92358006 1.12883117 25.37126895 0.77762682 30 0 C29.67 0.99 29.34 1.98 29 3 C23.77093263 5.0267703 18.93716904 5.30896292 13.375 5.25 C12.26898438 5.26160156 12.26898438 5.26160156 11.140625 5.2734375 C6.98692885 5.2585497 3.73274057 4.85899333 0 3 C0 2.01 0 1.02 0 0 Z " fill="#EAEBED" transform="translate(42,83)"/>
<path d="M0 0 C2.01822917 0.06510417 4.03645833 0.13020833 6.0546875 0.1953125 C6.0546875 3.1653125 6.0546875 6.1353125 6.0546875 9.1953125 C0 9.390625 0 9.390625 -1.9453125 9.1953125 C-3.9453125 7.1953125 -3.9453125 7.1953125 -4.1953125 4.6953125 C-3.88754876 1.61767512 -3.20963914 0.32225293 0 0 Z " fill="#010101" transform="translate(233.9453125,106.8046875)"/>
<path d="M0 0 C2 2 2 2 2.125 5.125 C2.08375 6.07375 2.0425 7.0225 2 8 C-0.78863007 9.39431504 -2.92078868 9.25660094 -6 9 C-8 6 -8 6 -7.75 3.375 C-7.5025 2.59125 -7.255 1.8075 -7 1 C-4.48718205 -0.25640898 -2.78302919 -0.20872719 0 0 Z " fill="#4F4F4F" transform="translate(175,107)"/>
<path d="M0 0 C0.77321882 2.98241547 1.41196203 5.97580475 2 9 C0.375 10.5625 0.375 10.5625 -2 12 C-5.25 11.6875 -5.25 11.6875 -8 11 C-8 10.67 -8 10.34 -8 10 C-5.69 9.34 -3.38 8.68 -1 8 C-1 7.34 -1 6.68 -1 6 C-1.99 5.67 -2.98 5.34 -4 5 C-4 5.99 -4 6.98 -4 8 C-4.66 8 -5.32 8 -6 8 C-6.33 5.69 -6.66 3.38 -7 1 C-4.53721199 -0.231394 -2.7204945 -0.07159196 0 0 Z " fill="#D4D7DB" transform="translate(69,94)"/>
<path d="M0 0 C6.15234375 -0.09765625 6.15234375 -0.09765625 8 0 C9 1 9 1 9.09765625 2.84765625 C9.04882812 5.92382812 9.04882812 5.92382812 9 9 C8.34 9 7.68 9 7 9 C6.67 7.02 6.34 5.04 6 3 C5.01 2.67 4.02 2.34 3 2 C3 4.31 3 6.62 3 9 C2.01 9 1.02 9 0 9 C0 6.03 0 3.06 0 0 Z " fill="#3D3D3D" transform="translate(181,107)"/>
<path d="M0 0 C1.65 0 3.3 0 5 0 C5.33 0.99 5.66 1.98 6 3 C4.35 2.67 2.7 2.34 1 2 C2.25541557 4.51083114 3.50063488 4.87125446 6 6 C6.042721 7.66611905 6.04063832 9.33382885 6 11 C5 12 5 12 2.4375 12.0625 C1.633125 12.041875 0.82875 12.02125 0 12 C-0.33 11.01 -0.66 10.02 -1 9 C1.475 9.495 1.475 9.495 4 10 C4 9.01 4 8.02 4 7 C1.525 6.01 1.525 6.01 -1 5 C-0.67 3.35 -0.34 1.7 0 0 Z " fill="#0A0A0A" transform="translate(122,104)"/>
<path d="M0 0 C0.66 0 1.32 0 2 0 C2 0.99 2 1.98 2 3 C2.804375 2.979375 3.60875 2.95875 4.4375 2.9375 C7 3 7 3 8 4 C8.14115161 6.67058851 8.04247107 9.32432238 8 12 C7.34 12 6.68 12 6 12 C6 9.69 6 7.38 6 5 C4.68 5 3.36 5 2 5 C2 7.31 2 9.62 2 12 C1.34 12 0.68 12 0 12 C0 8.04 0 4.08 0 0 Z " fill="#070707" transform="translate(271,104)"/>
<path d="M0 0 C2.64 0 5.28 0 8 0 C9.4783226 2.95664519 9.06032783 5.74229737 9 9 C8.34 9 7.68 9 7 9 C6.67 7.02 6.34 5.04 6 3 C5.01 3 4.02 3 3 3 C2.67 4.98 2.34 6.96 2 9 C1.34 9 0.68 9 0 9 C0 6.03 0 3.06 0 0 Z " fill="#252525" transform="translate(244,107)"/>
<path d="M0 0 C0.94875 0.04125 1.8975 0.0825 2.875 0.125 C3.205 1.115 3.535 2.105 3.875 3.125 C1.895 3.125 -0.085 3.125 -2.125 3.125 C-2.125 4.115 -2.125 5.105 -2.125 6.125 C-0.145 6.125 1.835 6.125 3.875 6.125 C3.545 7.115 3.215 8.105 2.875 9.125 C0 9.25 0 9.25 -3.125 9.125 C-5.125 7.125 -5.125 7.125 -5.375 4.625 C-4.98192433 0.69424327 -3.8631953 0.15452781 0 0 Z " fill="#181818" transform="translate(262.125,106.875)"/>
<path d="M0 0 C0.66 0 1.32 0 2 0 C2 2.31 2 4.62 2 7 C3.32 7 4.64 7 6 7 C6 4.69 6 2.38 6 0 C6.66 0 7.32 0 8 0 C8 2.97 8 5.94 8 9 C5.66705225 9.04241723 3.33297433 9.04092937 1 9 C0 8 0 8 -0.09765625 6.15234375 C-0.06510417 4.1015625 -0.03255208 2.05078125 0 0 Z " fill="#0E0E0E" transform="translate(141,107)"/>
<path d="M0 0 C1.01126953 0.23009766 1.01126953 0.23009766 2.04296875 0.46484375 C5.46877952 1.08483857 8.83893447 1.3352574 12.3125 1.5625 C13.56675781 1.64628906 14.82101563 1.73007813 16.11328125 1.81640625 C17.54220703 1.90728516 17.54220703 1.90728516 19 2 C19 2.33 19 2.66 19 3 C16.36 3 13.72 3 11 3 C11 3.66 11 4.32 11 5 C9.54119891 4.85892253 8.08296449 4.71197585 6.625 4.5625 C5.40683594 4.44068359 5.40683594 4.44068359 4.1640625 4.31640625 C2 4 2 4 0 3 C0 2.01 0 1.02 0 0 Z " fill="#C8CBD1" transform="translate(42,83)"/>
<path d="M0 0 C0 0.66 0 1.32 0 2 C-1.98 2.99 -3.96 3.98 -6 5 C-6 5.66 -6 6.32 -6 7 C-4.02 7.66 -2.04 8.32 0 9 C-0.99 9.66 -1.98 10.32 -3 11 C-5.625 10.4375 -5.625 10.4375 -8 9 C-8.8125 6.375 -8.8125 6.375 -9 4 C-6.10130984 1.70103884 -3.84906588 0 0 0 Z " fill="#E0E2E5" transform="translate(51,95)"/>
<path d="M0 0 C2.475 0.99 2.475 0.99 5 2 C4.67 2.99 4.34 3.98 4 5 C1.93359375 5.73046875 1.93359375 5.73046875 -0.5625 6.1875 C-1.38878906 6.34605469 -2.21507812 6.50460938 -3.06640625 6.66796875 C-4.02353516 6.83232422 -4.02353516 6.83232422 -5 7 C-4.67 5.35 -4.34 3.7 -4 2 C-3.01 2 -2.02 2 -1 2 C-1 2.66 -1 3.32 -1 4 C-0.34 4 0.32 4 1 4 C0.67 2.68 0.34 1.36 0 0 Z " fill="#071941" transform="translate(64,98)"/>
<path d="M0 0 C1.65 0 3.3 0 5 0 C5 0.66 5 1.32 5 2 C4.34 2 3.68 2 3 2 C3 4.31 3 6.62 3 9 C2.01 9 1.02 9 0 9 C0 6.03 0 3.06 0 0 Z " fill="#444444" transform="translate(222,107)"/>
<path d="M0 0 C0.66 0 1.32 0 2 0 C2 0.99 2 1.98 2 3 C2.66 3 3.32 3 4 3 C4 3.66 4 4.32 4 5 C3.34 5 2.68 5 2 5 C2 7.31 2 9.62 2 12 C1.34 12 0.68 12 0 12 C-0.19573608 10.56359829 -0.38127816 9.12580496 -0.5625 7.6875 C-0.66691406 6.88699219 -0.77132812 6.08648437 -0.87890625 5.26171875 C-1 3 -1 3 0 0 Z " fill="#191919" transform="translate(133,104)"/>
<path d="M0 0 C0.66 0 1.32 0 2 0 C2 3.96 2 7.92 2 12 C1.01 11.34 0.02 10.68 -1 10 C-1 8.33333333 -1 6.66666667 -1 5 C-1.99 4.34 -2.98 3.68 -4 3 C-2.68 3 -1.36 3 0 3 C0 2.01 0 1.02 0 0 Z " fill="#050505" transform="translate(161,104)"/>
<path d="M0 0 C1.67542976 0.28604898 3.34385343 0.61781233 5 1 C4.67 2.32 4.34 3.64 4 5 C2.68 5 1.36 5 0 5 C-0.5625 3.0625 -0.5625 3.0625 -1 1 C-0.67 0.67 -0.34 0.34 0 0 Z " fill="#EAEAEA" transform="translate(233,109)"/>
<path d="M0 0 C0.66 0 1.32 0 2 0 C3.16063604 4.25566547 2.76173392 7.6835078 2 12 C1.34 12 0.68 12 0 12 C-0.19573608 10.56359829 -0.38127816 9.12580496 -0.5625 7.6875 C-0.66691406 6.88699219 -0.77132812 6.08648437 -0.87890625 5.26171875 C-1 3 -1 3 0 0 Z " fill="#010101" transform="translate(195,104)"/>
<path d="M0 0 C1.65 0 3.3 0 5 0 C5 1.65 5 3.3 5 5 C3.35 5 1.7 5 0 5 C0 3.35 0 1.7 0 0 Z " fill="#F0F0F0" transform="translate(156,109)"/>
<path d="M0 0 C0.99 0.33 1.98 0.66 3 1 C3 3.64 3 6.28 3 9 C2.34 9 1.68 9 1 9 C0.814375 7.576875 0.814375 7.576875 0.625 6.125 C0.28312823 2.91332809 0.28312823 2.91332809 -2 1 C-1.34 0.67 -0.68 0.34 0 0 Z " fill="#222222" transform="translate(187,107)"/>
<path d="M0 0 C1.4783226 2.95664519 1.06032783 5.74229737 1 9 C0.34 9 -0.32 9 -1 9 C-1.185625 7.576875 -1.185625 7.576875 -1.375 6.125 C-1.71687177 2.91332809 -1.71687177 2.91332809 -4 1 C-2 0 -2 0 0 0 Z " fill="#2E2E2E" transform="translate(252,107)"/>
<path d="M0 0 C0.66 0 1.32 0 2 0 C2.12375 1.11375 2.2475 2.2275 2.375 3.375 C2.6465813 7.03103677 2.6465813 7.03103677 5 9 C3.35 8.67 1.7 8.34 0 8 C0 5.36 0 2.72 0 0 Z " fill="#010101" transform="translate(141,107)"/>
<path d="M0 0 C1.32 0.66 2.64 1.32 4 2 C3.01 2.33 2.02 2.66 1 3 C1 4.32 1 5.64 1 7 C0.01 7 -0.98 7 -2 7 C-2.125 4.625 -2.125 4.625 -2 2 C-1.34 1.34 -0.68 0.68 0 0 Z " fill="#181818" transform="translate(232,107)"/>
<path d="M0 0 C0.5775 0.45375 1.155 0.9075 1.75 1.375 C3.7800333 2.84113516 5.73539843 3.94857784 8 5 C5.6875 5.625 5.6875 5.625 3 6 C2.01 5.34 1.02 4.68 0 4 C0 2.68 0 1.36 0 0 Z " fill="#D1D4D8" transform="translate(43,100)"/>
<path d="M0 0 C2.475 0.99 2.475 0.99 5 2 C4.67 2.99 4.34 3.98 4 5 C3.01 5.33 2.02 5.66 1 6 C0.67 4.02 0.34 2.04 0 0 Z " fill="#132349" transform="translate(64,98)"/>
</svg>
